<?xml version="1.0" encoding="UTF-8" standalone="no"?>
<svg
   xmlns:ns0="http://www.iki.fi/pav/software/textext/"
   xmlns:dc="http://purl.org/dc/elements/1.1/"
   xmlns:cc="http://creativecommons.org/ns#"
   xmlns:rdf="http://www.w3.org/1999/02/22-rdf-syntax-ns#"
   xmlns:svg="http://www.w3.org/2000/svg"
   xmlns="http://www.w3.org/2000/svg"
   xmlns:xlink="http://www.w3.org/1999/xlink"
   xmlns:sodipodi="http://sodipodi.sourceforge.net/DTD/sodipodi-0.dtd"
   xmlns:inkscape="http://www.inkscape.org/namespaces/inkscape"
   version="1.0"
   width="799.99994"
   height="1313.15"
   id="s1"
   xml:space="preserve"
   inkscape:version="0.48.2 r9819"
   sodipodi:docname="r2d2.svg"><sodipodi:namedview
   pagecolor="#ffffff"
   bordercolor="#666666"
   borderopacity="1"
   objecttolerance="10"
   gridtolerance="10"
   guidetolerance="10"
   inkscape:pageopacity="0"
   inkscape:pageshadow="2"
   inkscape:window-width="1366"
   inkscape:window-height="744"
   id="namedview59"
   showgrid="false"
   inkscape:zoom="0.50832638"
   inkscape:cx="381.22621"
   inkscape:cy="742.2829"
   inkscape:window-x="0"
   inkscape:window-y="24"
   inkscape:window-maximized="1"
   inkscape:current-layer="s1" /><metadata
   id="metadata63"><rdf:RDF><cc:Work
       rdf:about=""><dc:format>image/svg+xml</dc:format><dc:type
         rdf:resource="http://purl.org/dc/dcmitype/StillImage" /></cc:Work></rdf:RDF></metadata><defs
   id="defs61"><marker
     inkscape:stockid="Arrow2Mstart"
     orient="auto"
     refY="0.0"
     refX="0.0"
     id="Arrow2Mstart"
     style="overflow:visible"><path
       id="path4205"
       style="font-size:12.0;fill-rule:evenodd;stroke-width:0.62500000;stroke-linejoin:round"
       d="M 8.7185878,4.0337352 L -2.2072895,0.016013256 L 8.7185884,-4.0017078 C 6.9730900,-1.6296469 6.9831476,1.6157441 8.7185878,4.0337352 z "
       transform="scale(0.6) translate(0,0)" /></marker><marker
     inkscape:stockid="Arrow2Mstart"
     orient="auto"
     refY="0"
     refX="0"
     id="Arrow2Mstart-1"
     style="overflow:visible"><path
       inkscape:connector-curvature="0"
       id="path4205-6"
       style="font-size:12px;fill-rule:evenodd;stroke-width:0.625;stroke-linejoin:round"
       d="M 8.7185878,4.0337352 -2.2072895,0.01601326 8.7185884,-4.0017078 c -1.7454984,2.3720609 -1.7354408,5.6174519 -6e-7,8.035443 z"
       transform="scale(0.6,0.6)" /></marker></defs>
<g
   transform="matrix(0.19311214,0,0,-0.19311214,298.66495,520.73824)"
   id="g1">
<g
   id="g2">
<path
   d="m -116.44281,-214.86294 -109.34818,-165.08375 279.466404,-47.77443 124.512256,29.6761 -24.6113,55.03044 154.9314,-25.32401 105.70121,26.77218 -69.48181,154.21869 -42.73996,0.71271 -2.87359,39.093 8.68144,6.51297 c 0,0 26.80251,26.77218 49.2226,59.382536 l -42.70963,472.012304 -5.0648,41.99691 c 0,0 8.68143,15.93745 23.16313,29.67611 0,0 13.03352,7.96872 7.96872,24.6113 -5.0648,16.68049 -21.00225,29.70643 -21.00225,29.70643 0,0 -4.35209,6.52055 -13.73865,-2.19121 -9.4169,-8.67385 -18.84137,-7.96114 -18.84137,-7.96114 0,0 -31.83699,89.05864 -160.73166,112.21419 -128.8643499,23.16313 -237.43916,-49.22261 -272.9231,-130.31252 0,0 -11.57778,-21.00225 -11.57778,-70.22485 0,-49.2226 10.83474,-136.12036 10.83474,-136.12036 l 41.29178,-393.81873 22.450424,-24.61888 0.705129,-5.80026 c 0,0 -21.707383,-16.64258 -13.738656,-70.93756 l -19.546497,-1.44817 z"
   id="p1"
   style="fill:#000000;fill-opacity:1;fill-rule:nonzero;stroke:none"
   inkscape:connector-curvature="0" />
<path
   d="m -187.4107,-342.27912 48.51747,-6.51297 c 0,0 13.03353,53.54436 34.02819,81.05959 21.002254,27.51522 43.422345,21.00225 57.191329,-23.86827 13.746238,-44.90083 13.033526,-77.48086 13.033526,-77.48086 l 75.289655,-13.73865 7.961141,-31.8749 -255.567811,44.16538 19.5465,28.25068 z"
   id="p2"
   style="fill:#e0e1e6;fill-opacity:1;fill-rule:nonzero;stroke:none"
   inkscape:connector-curvature="0" />
<path
   d="m -183.05103,-335.75856 74.54661,112.19144 113.6699439,-5.06481 33.3154821,-147.67538 -66.608218,13.03352 c 0,0 26.067052,52.83166 0.712711,114.38265 l -57.904037,5.06481 c 0,0 -46.349012,-6.52056 -57.926782,-99.90096 l -39.80571,7.96873 z"
   id="p3"
   style="fill:#e0e1e6;fill-opacity:1;fill-rule:nonzero;stroke:none"
   inkscape:connector-curvature="0" />
<path
   d="m -63.603576,-251.79506 c 0,0 28.220352,-24.6113 34.028194,-100.64399 0,0 17.385617,41.29179 -0.74304,99.18824 l -33.285154,1.45575 z"
   id="p4"
   style="fill:#e0e1e6;fill-opacity:1;fill-rule:nonzero;stroke:none"
   inkscape:connector-curvature="0" />
<path
   d="m 10.965784,-230.08768 43.422342,-183.15175 107.156964,24.6113 -71.673019,155.66686 -27.515222,1.42542 28.963392,-64.41701 -31.124273,-2.90392 -28.227934,68.7691 -21.00225,0 z"
   id="p5"
   style="fill:#ffffff;fill-opacity:1;fill-rule:nonzero;stroke:none"
   inkscape:connector-curvature="0" />
<path
   d="m 38.481006,-230.80039 18.098329,0 26.772182,-60.80038 -19.546498,-2.1912 -25.324013,62.99158 z"
   id="p6"
   style="fill:#bdc0c9;fill-opacity:1;fill-rule:nonzero;stroke:none"
   inkscape:connector-curvature="0" />
<path
   d="m -83.862786,-159.86283 c 0,0 0,-44.15779 16.642577,-57.90403 l -22.45042,0.71271 c 0,0 -2.903921,44.90084 5.807843,57.19132 z"
   id="p7"
   style="fill:#e0e1e6;fill-opacity:1;fill-rule:nonzero;stroke:none"
   inkscape:connector-curvature="0" />
<path
   d="m -76.637102,-114.25686 c 0,0 -5.807843,-86.86743 24.6113,-103.51 l 37.644828,-2.90392 c 0,0 29.676103,1.45575 23.8985886,103.54791 l -86.1547166,2.86601 z"
   id="p8"
   style="fill:#e0e1e6;fill-opacity:1;fill-rule:nonzero;stroke:none"
   inkscape:connector-curvature="0" />
<path
   d="m 16.030587,-117.86591 31.131855,-0.71271 c 0,0 4.352091,-92.66769 -26.772182,-103.54033 l -25.3543412,2.19121 c 0,0 25.3543412,7.22568 20.9946682,102.06183 z"
   id="p9"
   style="fill:#ffffff;fill-opacity:1;fill-rule:nonzero;stroke:none"
   inkscape:connector-curvature="0" />
<path
   d="m 52.227244,-151.8941 c 0,0 4.352091,-42.70963 -18.098328,-70.22485 l 41.26146,-1.44817 c 0,0 -5.064803,52.12652 15.929865,73.86423 l -39.092997,-2.19121 z"
   id="p10"
   style="fill:#e0e1e6;fill-opacity:1;fill-rule:nonzero;stroke:none"
   inkscape:connector-curvature="0" />
<path
   d="m 81.903348,-225.73559 15.937447,0 23.155545,-49.2226 0,86.15472 c 0,0 0.74304,28.94064 -12.29048,38.35754 -13.033528,9.41689 -31.124275,-18.80346 -26.802512,-75.28966 z"
   id="p11"
   style="fill:#ffffff;fill-opacity:1;fill-rule:nonzero;stroke:none"
   inkscape:connector-curvature="0" />
<path
   d="m 129.70811,-176.5054 0.70513,-114.38265 130.3201,-15.19441 c 0,0 -10.87265,18.80346 -8.68144,144.79421 0,0 -76.02511,-18.12107 -122.34379,-15.21715 z"
   id="p12"
   style="fill:#e0e1e6;fill-opacity:1;fill-rule:nonzero;stroke:none"
   inkscape:connector-curvature="0" />
<path
   d="m 259.27758,-159.11979 29.68369,7.96115 c 0,0 5.80026,-111.50906 -4.32934,-146.24997 0,0 -10.86507,-18.80346 -19.5465,2.16088 -8.70418,21.00225 -8.70418,126.70347 -5.80785,136.12794 z"
   id="p13"
   style="fill:#ffffff;fill-opacity:1;fill-rule:nonzero;stroke:none"
   inkscape:connector-curvature="0" />
<path
   d="m 299.82633,-197.50765 0,-25.32402 17.38562,-41.99691 17.38562,2.16088 -26.0898,65.90309 -8.68144,-0.74304 z"
   id="p14"
   style="fill:#bdc0c9;fill-opacity:1;fill-rule:nonzero;stroke:none"
   inkscape:connector-curvature="0" />
<path
   d="m 315.76378,-196.76461 28.22035,-71.67302 -28.96339,-2.90393 -15.19441,34.0282 c 0,0 0.71271,-42.70963 -5.0648,-60.09525 l 13.74624,-59.3522 91.21952,22.42009 -62.96884,139.02428 -20.99467,-1.44817 z"
   id="p15"
   style="fill:#ebeeee;fill-opacity:1;fill-rule:nonzero;stroke:none"
   inkscape:connector-curvature="0" />
<path
   d="m 132.5817,-299.56949 127.43892,-13.76898 c 0,0 25.32402,-6.52056 30.38882,6.51297 l 10.87264,-49.2226 -153.48323,24.6113 -15.21715,31.86731 z"
   id="p16"
   style="fill:#ffffff;fill-opacity:1;fill-rule:nonzero;stroke:none"
   inkscape:connector-curvature="0" />
<path
   d="m 54.388126,-124.37888 0,-18.09833 34.771234,1.44817 c 0,0 30.38881,5.80784 38.35754,-23.89859 0,0 54.31773,-2.87359 174.47031,26.80251 l 39.10058,51.383485 c 0,0 -149.12355,-36.189075 -286.699664,-37.637245 z"
   id="p17"
   style="fill:#e0e1e6;fill-opacity:1;fill-rule:nonzero;stroke:none"
   inkscape:connector-curvature="0" />
<path
   d="m 58.740216,-44.001677 -3.609051,-73.121193 c 0,0 81.089915,-1.45575 132.473395,7.96114 l -8.67385,76.737828 c 0,0 -118.029612,-9.416894 -120.190494,-11.577775 z"
   id="p18"
   style="fill:#ffffff;fill-opacity:1;fill-rule:nonzero;stroke:none"
   inkscape:connector-curvature="0" />
<path
   d="m 183.2828,-31.71119 7.96872,-76.73782 c 0,0 93.38041,10.129601 156.34924,27.515218 l -5.77751,68.06397 c 0,0 -138.28124,-18.098329 -158.54045,-18.841368 z"
   id="p19"
   style="fill:#ffffff;fill-opacity:1;fill-rule:nonzero;stroke:none"
   inkscape:connector-curvature="0" />
<path
   d="m 16.030587,-110.6099 31.131855,-0.74304 6.512972,194.0244 1.455751,3.646962 -33.323064,1.417841 -5.777514,-198.346163 z"
   id="p20"
   style="fill:#ffffff;fill-opacity:1;fill-rule:nonzero;stroke:none"
   inkscape:connector-curvature="0" />
<path
   d="m -9.316172,-109.16173 19.546498,-1.44817 6.512972,199.089203 25.354341,37.644827 -0.74304,117.9917 c 0,0 7.968724,107.15697 -75.994784,102.83521 -83.993835,-4.35968 -70.967895,-94.86648 -70.967895,-99.18825 0,-4.35967 0,-125.99833 0,-125.99833 l 39.100583,-32.572445 -7.968724,-196.185275 18.128657,-0.74304 7.930813,209.24913 -22.420091,23.89859 -0.735458,100.60608 c 0,0 -14.481696,32.58003 10.129605,60.09525 24.611301,27.51522 59.382535,17.38562 70.9603096,-18.80346 C 21.095389,231.08231 -2.06016,210.8231 -2.06016,210.8231 l -7.256012,-319.98483 z"
   id="p21"
   style="fill:#e0e1e6;fill-opacity:1;fill-rule:nonzero;stroke:none"
   inkscape:connector-curvature="0" />
<path
   d="m -65.77204,211.53581 0,-82.51534 57.9040376,-2.19121 1.4557516,77.48086 c 0,0 -30.4191432,-28.96339 -59.3597892,7.22569 z"
   id="p22"
   style="fill:#454b97;fill-opacity:1;fill-rule:nonzero;stroke:none"
   inkscape:connector-curvature="0" />
<path
   d="m -61.442695,122.5075 16.672905,-17.38562 36.9017876,0.74304 0,15.89954 -53.5746926,0.74304 z"
   id="p23"
   style="fill:#454b97;fill-opacity:1;fill-rule:nonzero;stroke:none"
   inkscape:connector-curvature="0" />
<path
   d="m -41.896197,100.05708 33.3154829,0.71271 -5.0648029,-209.93152 -36.932115,1.42543 8.681435,207.79338 z"
   id="p24"
   style="fill:#454b97;fill-opacity:1;fill-rule:nonzero;stroke:none"
   inkscape:connector-curvature="0" />
<path
   d="m -93.287262,-109.16173 9.424476,0 2.160881,59.352211 -18.841365,0 7.256008,-59.352211 z"
   id="p25"
   style="fill:#ffffff;fill-opacity:1;fill-rule:nonzero;stroke:none"
   inkscape:connector-curvature="0" />
<path
   d="m -101.99144,-45.449846 19.546495,-0.74304 7.968724,131.055556 -36.901789,32.58002 -2.19121,146.96268 c 0,0 -4.32934,35.48395 16.672907,59.35221 0,0 -34.028197,-7.22569 -42.739957,-14.4817 l 37.64483,-354.725726 z"
   id="p26"
   style="fill:#ffffff;fill-opacity:1;fill-rule:nonzero;stroke:none"
   inkscape:connector-curvature="0" />
<path
   d="m -71.5723,248.11157 c 0,27.40149 17.499348,49.58654 39.092997,49.58654 21.593649,0 39.0929964,-22.18505 39.0929964,-49.58654 0,-27.39391 -17.4993474,-49.60929 -39.0929964,-49.60929 -21.593649,0 -39.092997,22.21538 -39.092997,49.60929 z"
   id="p27"
   style="fill:#7a828d;fill-opacity:1;fill-rule:nonzero;stroke:none"
   inkscape:connector-curvature="0" />
<path
   d="M 47.162442,126.82926 82.646388,126.12413 59.483256,92.088354 23.99931,93.544105 47.162442,126.82926 z"
   id="p28"
   style="fill:#ffffff;fill-opacity:1;fill-rule:nonzero;stroke:none"
   inkscape:connector-curvature="0" />
<path
   d="m 48.610611,131.18893 34.035777,-0.71271 0,143.34604 c 0,0 0.705129,52.83924 -37.644828,68.03365 L 2.2616027,346.208 c 0,0 35.4839453,-15.19441 41.9969183,-64.44734 l 4.35209,-150.57173 z"
   id="p29"
   style="fill:#ffffff;fill-opacity:1;fill-rule:nonzero;stroke:none"
   inkscape:connector-curvature="0" />
<path
   d="m 22.551141,352.01584 c 0,0 83.250799,17.35529 115.118109,17.35529 l 41.26146,-398.178399 -120.895623,-10.129605 3.609051,120.895623 28.227933,41.996921 0,149.86659 c 0,0 5.064803,78.19358 -67.32093,78.19358 z"
   id="p30"
   style="fill:#ffffff;fill-opacity:1;fill-rule:nonzero;stroke:none"
   inkscape:connector-curvature="0" />
<path
   d="m 141.28588,371.56234 18.09833,-169.4131 c 0,0 88.3156,14.4817 161.44437,14.4817 l -16.65016,165.76613 c 0,0 -93.41073,-1.44817 -162.89254,-10.83473 z"
   id="p31"
   style="fill:#ffffff;fill-opacity:1;fill-rule:nonzero;stroke:none"
   inkscape:connector-curvature="0" />
<path
   d="M 159.38421,197.79715 223.80122,206.471 247.69981,-20.125834 182.53976,-27.3591 159.38421,197.79715 z"
   id="p32"
   style="fill:#ffffff;fill-opacity:1;fill-rule:nonzero;stroke:none"
   inkscape:connector-curvature="0" />
<path
   d="m 227.4406,205.76587 c 0,0 47.77443,5.76994 70.22485,5.05723 L 319.37283,-12.869822 249.86069,-20.125834 227.4406,205.76587 z"
   id="p33"
   style="fill:#ffffff;fill-opacity:1;fill-rule:nonzero;stroke:none"
   inkscape:connector-curvature="0" />
<path
   d="m 301.28208,210.11797 20.25163,0 19.55408,-219.3787409 -17.36287,-2.1912091 -22.44284,221.56995 z"
   id="p34"
   style="fill:#ffffff;fill-opacity:1;fill-rule:nonzero;stroke:none"
   inkscape:connector-curvature="0" />
<path
   d="m 302.73025,388.91763 c 0,0 -157.82773,-0.71272 -299.0204778,-35.45362 0,0 -54.2874042,14.45137 -93.3804012,-21.00225 0,0 -43.445091,-10.86506 -49.965641,-15.92987 l -3.60905,31.12428 c 0,0 16.64258,7.96872 46.349007,14.48927 l -3.646957,88.3156 c 0,0 -28.22036,-7.22568 -43.41476,-13.03352 0,0 0.71271,54.2874 52.12652,102.80487 0,0 19.546498,8.67386 39.092997,13.76899 0,0 17.355289,27.51522 25.324012,29.6761 0,0 -9.416893,-15.92987 -8.681435,-24.6113 l 89.77135,21.00225 -7.961142,23.86826 8.673854,1.45575 c 0,0 12.320814,-9.42447 22.450419,-21.00225 0,0 66.608215,10.87265 94.836155,9.41689 0,0 20.99467,-5.80026 28.25068,-10.86506 0,0 -91.21952,-8.68143 -110.76602,-15.90712 0,0 40.54875,-43.45267 58.63949,-108.60513 0,0 113.6472,13.73865 141.89788,10.1296 0,0 13.74624,-52.83923 13.03352,-79.64174 z"
   id="p35"
   style="fill:#bac1d1;fill-opacity:1;fill-rule:nonzero;stroke:none"
   inkscape:connector-curvature="0" />
<path
   d="m -78.092854,457.71705 c 0,0 -2.896339,-62.99916 5.064802,-89.05863 0,0 87.610469,19.54649 112.96481,23.89859 0,0 -13.033526,68.77668 -13.033526,85.41925 0,0 -64.447338,-7.22568 -104.996086,-20.25921 z"
   id="p36"
   style="fill:#000000;fill-opacity:1;fill-rule:nonzero;stroke:none"
   inkscape:connector-curvature="0" />
<path
   d="m -73.028052,451.90921 c 0,0 0,-59.3522 4.359673,-74.57694 0,0 81.802627,18.84137 102.797295,21.74529 0,0 -9.416894,31.83698 -13.033527,72.37815 0,0 -73.121191,-13.02594 -94.123441,-19.5465 z"
   id="p37"
   style="fill:#454b97;fill-opacity:1;fill-rule:nonzero;stroke:none"
   inkscape:connector-curvature="0" />
<path
   d="m -143.95803,429.45879 c 0,0 15.1944,8.68144 37.64482,13.77657 0,0 0,-43.45267 3.60906,-75.31998 0,0 -30.41157,-8.67386 -39.80571,-13.73866 0,0 -3.63938,51.41381 -1.44817,75.28207 z"
   id="p38"
   style="fill:#454b97;fill-opacity:1;fill-rule:nonzero;stroke:none"
   inkscape:connector-curvature="0" />
<path
   d="m 58.740216,489.55404 c 0,0 21.714962,-47.06172 23.906172,-88.3156 0,0 41.996922,6.51297 55.022862,8.67385 0,0 -13.76898,62.99917 -26.80251,89.05864 0,0 -41.253879,-2.89634 -52.126524,-9.41689 z"
   id="p39"
   style="fill:#000000;fill-opacity:1;fill-rule:nonzero;stroke:none"
   inkscape:connector-curvature="0" />
<path
   d="m 66.70894,487.39316 13.746238,-39.093 c 0,0 20.281952,5.0648 38.380282,7.22568 0,0 -4.35209,17.38562 -11.57777,36.93212 0,0 -18.84137,0.71271 -40.54875,-5.0648 z"
   id="p40"
   style="fill:#94c6eb;fill-opacity:1;fill-rule:nonzero;stroke:none"
   inkscape:connector-curvature="0" />
<path
   d="m 80.455178,443.94807 7.961142,-35.48395 c 0,0 26.80251,6.51298 41.99692,5.80785 0,0 -3.60905,22.44283 -9.4169,35.47636 0,0 -18.80345,0 -40.541162,-5.80026 z"
   id="p41"
   style="fill:#94c6eb;fill-opacity:1;fill-rule:nonzero;stroke:none"
   inkscape:connector-curvature="0" />
<path
   d="m 207.8941,409.91229 c 0,0 29.6761,-2.90392 51.38348,2.19121 21.74529,5.06481 23.90618,11.58536 26.8101,20.97193 2.87359,9.41689 -2.90392,29.70643 -23.19346,26.80251 0,0 -36.18908,-3.60906 -48.47956,-4.3521 -12.32082,-0.71271 -25.97607,-8.68143 -24.61889,-26.06705 1.45575,-18.80346 18.09833,-19.5465 18.09833,-19.5465 z"
   id="p42"
   style="fill:#000000;fill-opacity:1;fill-rule:nonzero;stroke:none"
   inkscape:connector-curvature="0" />
<path
   d="m 254.22036,452.62192 c 0,0 -11.58535,-21.70738 3.60905,-33.29273 0,0 -24.6113,-7.22569 -49.2226,-3.60905 0,0 -18.81104,4.32176 -10.87264,25.32401 0,0 2.19121,7.96872 21.00225,9.41689 18.83378,1.44817 20.28954,-0.71271 35.48394,2.16088 z"
   id="p43"
   style="fill:#7a828d;fill-opacity:1;fill-rule:nonzero;stroke:none"
   inkscape:connector-curvature="0" />
<path
   d="m 255.66853,438.52691 c 0,8.96955 5.50456,16.28622 12.32082,16.28622 6.77834,0 12.29048,-7.31667 12.29048,-16.28622 0,-9.00746 -5.51214,-16.2938 -12.29048,-16.2938 -6.81626,0 -12.32082,7.28634 -12.32082,16.2938 z"
   id="p44"
   style="fill:#de192b;fill-opacity:1;fill-rule:nonzero;stroke:none"
   inkscape:connector-curvature="0" />
<path
   d="m 289.69673,499.68364 c 0,0 15.93745,-42.70963 16.65016,-55.73557 0,0 13.02594,23.15555 20.99466,26.05947 0,0 -19.54649,15.19441 -18.83378,36.19666 0,0 -10.84232,-9.39415 -18.81104,-6.52056 z"
   id="p45"
   style="fill:#7a828d;fill-opacity:1;fill-rule:nonzero;stroke:none"
   inkscape:connector-curvature="0" />
<path
   d="m 315.76378,509.84358 c -1.56948,1.66046 -5.0648,-20.28954 17.38562,-35.48395 0,0 5.0648,11.58536 -17.38562,35.48395 z"
   id="p46"
   style="fill:#576370;fill-opacity:1;fill-rule:nonzero;stroke:none"
   inkscape:connector-curvature="0" />
<path
   d="m 97.840795,564.84369 c 0,0 10.122025,2.19121 13.025945,2.19121 0,0 29.6761,-40.54875 49.96564,-97.02736 0,0 83.96351,9.41689 125.96043,8.68144 l 0.74304,-5.06481 c 0,0 -111.50906,-7.22568 -135.37732,-10.84231 0,0 -18.84137,59.3522 -54.317735,102.06183 z"
   id="p47"
   style="fill:#3b3e67;fill-opacity:1;fill-rule:nonzero;stroke:none"
   inkscape:connector-curvature="0" />
<path
   d="m 115.21883,568.45274 c 0,0 34.03578,-53.54436 49.23018,-95.54128 0,0 110.76602,10.12961 122.3438,7.96873 0,0 -10.12961,52.83165 -80.34688,98.4452 0,0 -73.86423,-7.22568 -91.2271,-10.87265 z"
   id="p48"
   style="fill:#454b97;fill-opacity:1;fill-rule:nonzero;stroke:none"
   inkscape:connector-curvature="0" />
<path
   d="m 155.17618,554.85815 c 10.09928,18.75038 39.63132,22.51107 66.01682,8.32508 26.39308,-14.15567 39.63132,-40.84445 29.53204,-59.61758 -10.07653,-18.78071 -39.63132,-22.51108 -66.01682,-8.35541 -26.36275,14.15567 -39.60099,40.87478 -29.53204,59.64791 z"
   id="p49"
   style="fill:#000000;fill-opacity:1;fill-rule:nonzero;stroke:none"
   inkscape:connector-curvature="0" />
<path
   d="m 217.28067,520.73897 c 0,2.79019 3.26027,5.01173 7.25601,5.01173 4.00332,0 7.23326,-2.22154 7.23326,-5.01173 0,-2.75228 -3.22994,-5.00415 -7.23326,-5.00415 -3.99574,0 -7.25601,2.25187 -7.25601,5.00415 z"
   id="p50"
   style="fill:#ebeeee;fill-opacity:1;fill-rule:nonzero;stroke:none"
   inkscape:connector-curvature="0" />
<path
   d="m 178.96104,558.97519 c 2.19121,6.93757 13.26857,9.62919 24.78569,5.98982 11.5247,-3.61664 19.07641,-12.17676 16.8852,-19.10674 -2.19121,-6.92999 -13.26857,-9.59887 -24.79327,-5.98223 -11.51712,3.63938 -19.06883,12.1995 -16.87762,19.09915 z"
   id="p51"
   style="fill:#ebeeee;fill-opacity:1;fill-rule:nonzero;stroke:none"
   inkscape:connector-curvature="0" />
<path
   d="m -47.673711,574.26059 c 0,0 -7.256012,-10.87265 -7.968724,-15.92987 0,0 -18.833786,-2.16846 -23.898589,-5.77751 0,0 25.354341,18.80346 31.867313,21.70738 z"
   id="p52"
   style="fill:#454b97;fill-opacity:1;fill-rule:nonzero;stroke:none"
   inkscape:connector-curvature="0" />
<path
   d="m -18.710319,588.00682 c 0,0 -7.961142,-15.90711 -9.416893,-20.97192 0,0 56.478613,16.64258 75.289654,17.35529 l -7.968724,18.83379 c 0,0 -31.8369847,-0.73546 -57.904037,-15.21716 z"
   id="p53"
   style="fill:#454b97;fill-opacity:1;fill-rule:nonzero;stroke:none"
   inkscape:connector-curvature="0" />
<path
   d="m 63.805019,605.39244 15.937447,-15.19441 c 0,0 60.095244,8.67386 75.282074,6.51298 0,0 -53.57469,16.64257 -91.219521,8.68143 z"
   id="p54"
   style="fill:#454b97;fill-opacity:1;fill-rule:nonzero;stroke:none"
   inkscape:connector-curvature="0" />
</g>
</g>

<rect
   style="fill:#05a6a6;fill-opacity:0;stroke:#000000;stroke-width:4.43745232;stroke-linecap:round;stroke-linejoin:miter;stroke-miterlimit:4;stroke-opacity:1;stroke-dasharray:none"
   id="rect3046"
   width="111.44714"
   height="98.135376"
   x="570.42566"
   y="445.33929" /><path
   style="fill:none;stroke:#000000;stroke-width:2.72363091;stroke-linecap:butt;stroke-linejoin:miter;stroke-miterlimit:4;stroke-opacity:1;stroke-dasharray:none;marker-start:url(#Arrow2Mstart);marker-end:none"
   d="m 389.54866,449.77157 c 170.38554,0 170.38554,0 170.38554,0"
   id="path3048"
   inkscape:connector-curvature="0" /><path
   style="fill:none;stroke:#000000;stroke-width:2.72363091;stroke-linecap:butt;stroke-linejoin:miter;stroke-miterlimit:4;stroke-opacity:1;stroke-dasharray:none;marker-start:url(#Arrow2Mstart);marker-end:none"
   d="m 558.81155,530.16827 c -170.38553,0 -170.38553,0 -170.38553,0"
   id="path3048-3"
   inkscape:connector-curvature="0" />

<g
   id="g4680"
   transform="matrix(0.21687025,0,0,0.21687025,137.56989,234.73267)"><title
     id="title4682">Layer 1</title><g
     id="layer1"
     transform="translate(-80,-33)"><path
       d="m 441.38033,73.691483 c -56.86682,0 -106.20126,24.45579 -133.79835,60.572747 -25.60404,-14.43057 -56.64081,-23.15572 -90.35252,-23.15561 -86.76072,0 -157.251648,56.23045 -157.251648,125.4392 0,5.08582 1.183359,9.94698 1.92242,14.8748 -74.928935,9.53698 -132.452875,60.84967 -132.452875,123.29246 0,61.8707 56.418699,113.07764 130.338187,123.29236 -1.497758,6.94682 -2.691307,14.02933 -2.691307,21.31546 0,69.20884 70.490883,125.28594 157.251663,125.28594 42.49564,0 80.8928,-13.54079 109.19192,-35.42366 28.83947,27.36476 71.47514,45.23795 119.76501,45.23795 68.89936,0 126.82034,-35.70949 148.02429,-84.95521 16.97148,5.0063 35.06701,8.28093 54.21136,8.28093 86.76075,0 157.05945,-56.23051 157.05945,-125.43934 0,-34.80206 -17.78629,-66.21881 -46.52183,-88.94228 14.50728,-18.98587 23.45326,-41.02032 23.45326,-64.86651 0,-69.20879 -70.49113,-125.28602 -157.25194,-125.28595 -9.13296,0 -18.01342,0.79899 -26.72116,1.99359 C 581.54632,117.42724 517.88802,73.691483 441.38033,73.691483 z"
       id="path3422"
       stroke-miterlimit="4"
       inkscape:connector-curvature="0"
       style="fill:#ffffff;stroke:#000000;stroke-width:13.47499657;stroke-linejoin:round;stroke-miterlimit:4;stroke-dashoffset:0" /><path
       d="m 688.99091,699.85773 a 47.279785,37.714957 0 1 1 -94.55957,0 47.279785,37.714957 0 1 1 94.55957,0 z"
       id="path3424"
       stroke-miterlimit="4"
       inkscape:connector-curvature="0"
       style="fill:#ffffff;stroke:#000000;stroke-width:4.79874897;stroke-linejoin:round;stroke-miterlimit:4;stroke-dashoffset:0" /><path
       d="m 737.56665,782.14417 a 32.816311,26.177485 0 1 1 -65.63257,0 32.816311,26.177485 0 1 1 65.63257,0 z"
       id="path3426"
       stroke-miterlimit="4"
       inkscape:connector-curvature="0"
       style="fill:#ffffff;stroke:#000000;stroke-width:5.4027729;stroke-linejoin:round;stroke-miterlimit:4;stroke-dashoffset:0" /></g></g>
<g
   transform="matrix(2.5155274,0,0,2.5155274,-440.59014,-27.731101)"
   ns0:text="procesamiento"
   ns0:preamble=""
   id="g4823"><defs
   id="defs4825">
<g
   id="g4827">
<symbol
   style="overflow:visible"
   overflow="visible"
   id="textext-dc7d1f0f-0">
<path
   inkscape:connector-curvature="0"
   style="stroke:none"
   d="m 1.71875,-3.75 0,-0.65625 -1.4375,0.109375 0,0.3125 c 0.703125,0 0.78125,0.0625 0.78125,0.5 l 0,4.65625 C 1.0625,1.625 0.953125,1.625 0.28125,1.625 l 0,0.3125 C 0.625,1.921875 1.140625,1.90625 1.390625,1.90625 c 0.28125,0 0.78125,0.015625 1.125,0.03125 l 0,-0.3125 C 1.859375,1.625 1.75,1.625 1.75,1.171875 l 0,-1.765625 c 0.046875,0.171875 0.46875,0.703125 1.21875,0.703125 1.1875,0 2.21875,-0.984375 2.21875,-2.265625 0,-1.265625 -0.953125,-2.25 -2.078125,-2.25 -0.78125,0 -1.203125,0.4375 -1.390625,0.65625 z m 0.03125,2.609375 0,-2.21875 C 2.03125,-3.875 2.515625,-4.15625 3.03125,-4.15625 c 0.734375,0 1.328125,0.875 1.328125,2 0,1.203125 -0.6875,2.046875 -1.421875,2.046875 -0.40625,0 -0.78125,-0.203125 -1.046875,-0.609375 C 1.75,-0.921875 1.75,-0.9375 1.75,-1.140625 z m 0,0"
   id="path4830" />
</symbol>
<symbol
   style="overflow:visible"
   overflow="visible"
   id="textext-dc7d1f0f-1">
<path
   inkscape:connector-curvature="0"
   style="stroke:none"
   d="m 1.671875,-3.3125 0,-1.09375 -1.390625,0.109375 0,0.3125 c 0.703125,0 0.78125,0.0625 0.78125,0.5625 l 0,2.671875 c 0,0.4375 -0.109375,0.4375 -0.78125,0.4375 l 0,0.3125 c 0.390625,-0.015625 0.859375,-0.03125 1.140625,-0.03125 0.390625,0 0.859375,0 1.265625,0.03125 l 0,-0.3125 -0.21875,0 c -0.734375,0 -0.75,-0.109375 -0.75,-0.46875 l 0,-1.53125 c 0,-0.984375 0.421875,-1.875 1.171875,-1.875 0.0625,0 0.09375,0 0.109375,0.015625 -0.03125,0 -0.234375,0.125 -0.234375,0.390625 0,0.265625 0.21875,0.421875 0.4375,0.421875 0.171875,0 0.421875,-0.125 0.421875,-0.4375 0,-0.3125 -0.3125,-0.609375 -0.734375,-0.609375 -0.734375,0 -1.09375,0.671875 -1.21875,1.09375 z m 0,0"
   id="path4833" />
</symbol>
<symbol
   style="overflow:visible"
   overflow="visible"
   id="textext-dc7d1f0f-2">
<path
   inkscape:connector-curvature="0"
   style="stroke:none"
   d="M 4.6875,-2.140625 C 4.6875,-3.40625 3.703125,-4.46875 2.5,-4.46875 c -1.25,0 -2.21875,1.09375 -2.21875,2.328125 0,1.296875 1.03125,2.25 2.203125,2.25 1.203125,0 2.203125,-0.984375 2.203125,-2.25 z m -2.1875,2 c -0.4375,0 -0.875,-0.203125 -1.140625,-0.671875 -0.25,-0.4375 -0.25,-1.046875 -0.25,-1.40625 0,-0.390625 0,-0.921875 0.234375,-1.359375 C 1.609375,-4.03125 2.078125,-4.25 2.484375,-4.25 c 0.4375,0 0.859375,0.21875 1.125,0.65625 0.265625,0.421875 0.265625,1 0.265625,1.375 0,0.359375 0,0.90625 -0.21875,1.34375 C 3.421875,-0.421875 2.984375,-0.140625 2.5,-0.140625 z m 0,0"
   id="path4836" />
</symbol>
<symbol
   style="overflow:visible"
   overflow="visible"
   id="textext-dc7d1f0f-3">
<path
   inkscape:connector-curvature="0"
   style="stroke:none"
   d="m 1.171875,-2.171875 c 0,-1.625 0.8125,-2.046875 1.34375,-2.046875 0.09375,0 0.71875,0.015625 1.0625,0.375 -0.40625,0.03125 -0.46875,0.328125 -0.46875,0.453125 0,0.265625 0.1875,0.453125 0.453125,0.453125 0.265625,0 0.46875,-0.15625 0.46875,-0.46875 0,-0.671875 -0.765625,-1.0625 -1.53125,-1.0625 -1.25,0 -2.15625,1.078125 -2.15625,2.3125 0,1.28125 0.984375,2.265625 2.140625,2.265625 1.328125,0 1.65625,-1.203125 1.65625,-1.296875 0,-0.09375 -0.109375,-0.09375 -0.140625,-0.09375 -0.078125,0 -0.109375,0.03125 -0.125,0.09375 -0.28125,0.921875 -0.9375,1.046875 -1.296875,1.046875 -0.53125,0 -1.40625,-0.421875 -1.40625,-2.03125 z m 0,0"
   id="path4839" />
</symbol>
<symbol
   style="overflow:visible"
   overflow="visible"
   id="textext-dc7d1f0f-4">
<path
   inkscape:connector-curvature="0"
   style="stroke:none"
   d="M 1.109375,-2.515625 C 1.171875,-4 2.015625,-4.25 2.359375,-4.25 c 1.015625,0 1.125,1.34375 1.125,1.734375 z m 0,0.21875 2.78125,0 c 0.21875,0 0.25,0 0.25,-0.21875 0,-0.984375 -0.546875,-1.953125 -1.78125,-1.953125 -1.15625,0 -2.078125,1.03125 -2.078125,2.28125 0,1.328125 1.046875,2.296875 2.1875,2.296875 C 3.6875,0.109375 4.140625,-1 4.140625,-1.1875 4.140625,-1.28125 4.0625,-1.3125 4,-1.3125 c -0.078125,0 -0.109375,0.0625 -0.125,0.140625 -0.34375,1.03125 -1.25,1.03125 -1.34375,1.03125 -0.5,0 -0.890625,-0.296875 -1.125,-0.671875 -0.296875,-0.46875 -0.296875,-1.125 -0.296875,-1.484375 z m 0,0"
   id="path4842" />
</symbol>
<symbol
   style="overflow:visible"
   overflow="visible"
   id="textext-dc7d1f0f-5">
<path
   inkscape:connector-curvature="0"
   style="stroke:none"
   d="m 2.078125,-1.9375 c 0.21875,0.046875 1.03125,0.203125 1.03125,0.921875 0,0.5 -0.34375,0.90625 -1.125,0.90625 -0.84375,0 -1.203125,-0.5625 -1.390625,-1.421875 C 0.5625,-1.65625 0.5625,-1.6875 0.453125,-1.6875 c -0.125,0 -0.125,0.0625 -0.125,0.234375 l 0,1.328125 c 0,0.171875 0,0.234375 0.109375,0.234375 0.046875,0 0.0625,-0.015625 0.25,-0.203125 0.015625,-0.015625 0.015625,-0.03125 0.203125,-0.21875 0.4375,0.40625 0.890625,0.421875 1.09375,0.421875 1.140625,0 1.609375,-0.671875 1.609375,-1.390625 0,-0.515625 -0.296875,-0.828125 -0.421875,-0.9375 C 2.84375,-2.546875 2.453125,-2.625 2.03125,-2.703125 1.46875,-2.8125 0.8125,-2.9375 0.8125,-3.515625 c 0,-0.359375 0.25,-0.765625 1.109375,-0.765625 1.09375,0 1.15625,0.90625 1.171875,1.203125 0,0.09375 0.09375,0.09375 0.109375,0.09375 0.140625,0 0.140625,-0.046875 0.140625,-0.234375 l 0,-1.015625 c 0,-0.15625 0,-0.234375 -0.109375,-0.234375 -0.046875,0 -0.078125,0 -0.203125,0.125 -0.03125,0.03125 -0.125,0.125 -0.171875,0.15625 -0.375,-0.28125 -0.78125,-0.28125 -0.9375,-0.28125 -1.21875,0 -1.59375,0.671875 -1.59375,1.234375 0,0.34375 0.15625,0.625 0.421875,0.84375 0.328125,0.25 0.609375,0.3125 1.328125,0.453125 z m 0,0"
   id="path4845" />
</symbol>
<symbol
   style="overflow:visible"
   overflow="visible"
   id="textext-dc7d1f0f-6">
<path
   inkscape:connector-curvature="0"
   style="stroke:none"
   d="m 3.3125,-0.75 c 0.046875,0.390625 0.3125,0.8125 0.78125,0.8125 0.21875,0 0.828125,-0.140625 0.828125,-0.953125 l 0,-0.5625 -0.25,0 0,0.5625 c 0,0.578125 -0.25,0.640625 -0.359375,0.640625 -0.328125,0 -0.375,-0.453125 -0.375,-0.5 l 0,-1.984375 c 0,-0.421875 0,-0.8125 -0.359375,-1.1875 C 3.1875,-4.3125 2.6875,-4.46875 2.21875,-4.46875 c -0.828125,0 -1.515625,0.46875 -1.515625,1.125 0,0.296875 0.203125,0.46875 0.46875,0.46875 0.28125,0 0.453125,-0.203125 0.453125,-0.453125 0,-0.125 -0.046875,-0.453125 -0.515625,-0.453125 C 1.390625,-4.140625 1.875,-4.25 2.1875,-4.25 c 0.5,0 1.0625,0.390625 1.0625,1.28125 l 0,0.359375 c -0.515625,0.03125 -1.203125,0.0625 -1.828125,0.359375 -0.75,0.34375 -1,0.859375 -1,1.296875 0,0.8125 0.96875,1.0625 1.59375,1.0625 0.65625,0 1.109375,-0.40625 1.296875,-0.859375 z M 3.25,-2.390625 l 0,1 c 0,0.9375 -0.71875,1.28125 -1.171875,1.28125 -0.484375,0 -0.890625,-0.34375 -0.890625,-0.84375 0,-0.546875 0.421875,-1.375 2.0625,-1.4375 z m 0,0"
   id="path4848" />
</symbol>
<symbol
   style="overflow:visible"
   overflow="visible"
   id="textext-dc7d1f0f-7">
<path
   inkscape:connector-curvature="0"
   style="stroke:none"
   d="m 1.09375,-3.421875 0,2.671875 c 0,0.4375 -0.109375,0.4375 -0.78125,0.4375 l 0,0.3125 c 0.359375,-0.015625 0.859375,-0.03125 1.140625,-0.03125 0.25,0 0.765625,0.015625 1.109375,0.03125 l 0,-0.3125 c -0.671875,0 -0.78125,0 -0.78125,-0.4375 l 0,-1.84375 C 1.78125,-3.625 2.5,-4.1875 3.125,-4.1875 c 0.640625,0 0.75,0.53125 0.75,1.109375 l 0,2.328125 c 0,0.4375 -0.109375,0.4375 -0.78125,0.4375 l 0,0.3125 c 0.34375,-0.015625 0.859375,-0.03125 1.125,-0.03125 0.25,0 0.78125,0.015625 1.109375,0.03125 l 0,-0.3125 c -0.65625,0 -0.765625,0 -0.765625,-0.4375 l 0,-1.84375 c 0,-1.03125 0.703125,-1.59375 1.34375,-1.59375 0.625,0 0.734375,0.53125 0.734375,1.109375 l 0,2.328125 c 0,0.4375 -0.109375,0.4375 -0.78125,0.4375 l 0,0.3125 c 0.34375,-0.015625 0.859375,-0.03125 1.125,-0.03125 0.265625,0 0.78125,0.015625 1.125,0.03125 l 0,-0.3125 c -0.515625,0 -0.765625,0 -0.78125,-0.296875 l 0,-1.90625 c 0,-0.859375 0,-1.15625 -0.3125,-1.515625 -0.140625,-0.171875 -0.46875,-0.375 -1.046875,-0.375 -0.828125,0 -1.28125,0.59375 -1.4375,0.984375 C 4.390625,-4.296875 3.65625,-4.40625 3.203125,-4.40625 2.46875,-4.40625 2,-3.984375 1.71875,-3.359375 l 0,-1.046875 -1.40625,0.109375 0,0.3125 c 0.703125,0 0.78125,0.0625 0.78125,0.5625 z m 0,0"
   id="path4851" />
</symbol>
<symbol
   style="overflow:visible"
   overflow="visible"
   id="textext-dc7d1f0f-8">
<path
   inkscape:connector-curvature="0"
   style="stroke:none"
   d="M 1.765625,-4.40625 0.375,-4.296875 l 0,0.3125 c 0.640625,0 0.734375,0.0625 0.734375,0.546875 l 0,2.6875 c 0,0.4375 -0.109375,0.4375 -0.78125,0.4375 l 0,0.3125 C 0.640625,-0.015625 1.1875,-0.03125 1.421875,-0.03125 1.78125,-0.03125 2.125,-0.015625 2.46875,0 l 0,-0.3125 c -0.671875,0 -0.703125,-0.046875 -0.703125,-0.4375 z m 0.03125,-1.734375 c 0,-0.3125 -0.234375,-0.53125 -0.515625,-0.53125 -0.3125,0 -0.53125,0.265625 -0.53125,0.53125 0,0.265625 0.21875,0.53125 0.53125,0.53125 0.28125,0 0.515625,-0.21875 0.515625,-0.53125 z m 0,0"
   id="path4854" />
</symbol>
<symbol
   style="overflow:visible"
   overflow="visible"
   id="textext-dc7d1f0f-9">
<path
   inkscape:connector-curvature="0"
   style="stroke:none"
   d="m 1.09375,-3.421875 0,2.671875 c 0,0.4375 -0.109375,0.4375 -0.78125,0.4375 l 0,0.3125 c 0.359375,-0.015625 0.859375,-0.03125 1.140625,-0.03125 0.25,0 0.765625,0.015625 1.109375,0.03125 l 0,-0.3125 c -0.671875,0 -0.78125,0 -0.78125,-0.4375 l 0,-1.84375 C 1.78125,-3.625 2.5,-4.1875 3.125,-4.1875 c 0.640625,0 0.75,0.53125 0.75,1.109375 l 0,2.328125 c 0,0.4375 -0.109375,0.4375 -0.78125,0.4375 l 0,0.3125 c 0.34375,-0.015625 0.859375,-0.03125 1.125,-0.03125 0.25,0 0.78125,0.015625 1.109375,0.03125 l 0,-0.3125 c -0.515625,0 -0.765625,0 -0.765625,-0.296875 l 0,-1.90625 c 0,-0.859375 0,-1.15625 -0.3125,-1.515625 -0.140625,-0.171875 -0.46875,-0.375 -1.046875,-0.375 C 2.46875,-4.40625 2,-3.984375 1.71875,-3.359375 l 0,-1.046875 -1.40625,0.109375 0,0.3125 c 0.703125,0 0.78125,0.0625 0.78125,0.5625 z m 0,0"
   id="path4857" />
</symbol>
<symbol
   style="overflow:visible"
   overflow="visible"
   id="textext-dc7d1f0f-10">
<path
   inkscape:connector-curvature="0"
   style="stroke:none"
   d="m 1.71875,-3.984375 1.4375,0 0,-0.3125 -1.4375,0 0,-1.828125 -0.25,0 c 0,0.8125 -0.296875,1.875 -1.28125,1.921875 l 0,0.21875 0.84375,0 0,2.75 c 0,1.21875 0.9375,1.34375 1.296875,1.34375 0.703125,0 0.984375,-0.703125 0.984375,-1.34375 l 0,-0.5625 -0.25,0 0,0.546875 c 0,0.734375 -0.296875,1.109375 -0.671875,1.109375 -0.671875,0 -0.671875,-0.90625 -0.671875,-1.078125 z m 0,0"
   id="path4860" />
</symbol>
</g>
</defs>
<g
   id="textext-dc7d1f0f-11">
<g
   style="fill:#000000;fill-opacity:1"
   id="g4863">
  <use
   height="1313.15"
   width="799.99994"
   xlink:href="#textext-dc7d1f0f-0"
   x="223.43201"
   y="134.765"
   id="use4865" />
  <use
   height="1313.15"
   width="799.99994"
   xlink:href="#textext-dc7d1f0f-1"
   x="228.96722"
   y="134.765"
   id="use4867" />
  <use
   height="1313.15"
   width="799.99994"
   xlink:href="#textext-dc7d1f0f-2"
   x="232.86957"
   y="134.765"
   id="use4869" />
</g>
<g
   style="fill:#000000;fill-opacity:1"
   id="g4871">
  <use
   height="1313.15"
   width="799.99994"
   xlink:href="#textext-dc7d1f0f-3"
   x="238.12982"
   y="134.765"
   id="use4873" />
  <use
   height="1313.15"
   width="799.99994"
   xlink:href="#textext-dc7d1f0f-4"
   x="242.55721"
   y="134.765"
   id="use4875" />
  <use
   height="1313.15"
   width="799.99994"
   xlink:href="#textext-dc7d1f0f-5"
   x="246.98459"
   y="134.765"
   id="use4877" />
  <use
   height="1313.15"
   width="799.99994"
   xlink:href="#textext-dc7d1f0f-6"
   x="250.91383"
   y="134.765"
   id="use4879" />
  <use
   height="1313.15"
   width="799.99994"
   xlink:href="#textext-dc7d1f0f-7"
   x="255.89513"
   y="134.765"
   id="use4881" />
  <use
   height="1313.15"
   width="799.99994"
   xlink:href="#textext-dc7d1f0f-8"
   x="264.19696"
   y="134.765"
   id="use4883" />
  <use
   height="1313.15"
   width="799.99994"
   xlink:href="#textext-dc7d1f0f-4"
   x="266.96457"
   y="134.765"
   id="use4885" />
  <use
   height="1313.15"
   width="799.99994"
   xlink:href="#textext-dc7d1f0f-9"
   x="271.39197"
   y="134.765"
   id="use4887" />
</g>
<g
   style="fill:#000000;fill-opacity:1"
   id="g4889">
  <use
   height="1313.15"
   width="799.99994"
   xlink:href="#textext-dc7d1f0f-10"
   x="276.64822"
   y="134.765"
   id="use4891" />
  <use
   height="1313.15"
   width="799.99994"
   xlink:href="#textext-dc7d1f0f-2"
   x="280.52267"
   y="134.765"
   id="use4893" />
</g>
</g>
</g><g
   id="g6036"
   transform="matrix(2.844253,0,0,2.844253,-59.963608,121.9579)"
   ns0:preamble=""
   ns0:text="Entorno"><defs
   id="defs6038">
<g
   id="g6040">
<symbol
   id="textext-495789db-0"
   overflow="visible"
   style="overflow:visible">
<path
   id="path6043"
   d="m 1.359375,-0.78125 c 0,0.359375 -0.03125,0.46875 -0.796875,0.46875 l -0.234375,0 0,0.3125 5.75,0 L 6.5,-2.578125 l -0.25,0 C 6,-1.03125 5.765625,-0.3125 4.0625,-0.3125 l -1.328125,0 C 2.265625,-0.3125 2.25,-0.375 2.25,-0.703125 l 0,-2.671875 0.890625,0 c 0.96875,0 1.078125,0.328125 1.078125,1.171875 l 0.25,0 0,-2.640625 -0.25,0 c 0,0.859375 -0.109375,1.171875 -1.078125,1.171875 l -0.890625,0 0,-2.40625 c 0,-0.328125 0.015625,-0.390625 0.484375,-0.390625 l 1.28125,0 c 1.53125,0 1.796875,0.546875 1.953125,1.9375 l 0.25,0 -0.28125,-2.25 -5.609375,0 0,0.3125 0.234375,0 c 0.765625,0 0.796875,0.109375 0.796875,0.46875 z m 0,0"
   style="stroke:none"
   inkscape:connector-curvature="0" />
</symbol>
<symbol
   id="textext-495789db-1"
   overflow="visible"
   style="overflow:visible">
<path
   id="path6046"
   d="m 1.09375,-3.421875 0,2.671875 c 0,0.4375 -0.109375,0.4375 -0.78125,0.4375 l 0,0.3125 c 0.359375,-0.015625 0.859375,-0.03125 1.140625,-0.03125 0.25,0 0.765625,0.015625 1.109375,0.03125 l 0,-0.3125 c -0.671875,0 -0.78125,0 -0.78125,-0.4375 l 0,-1.84375 C 1.78125,-3.625 2.5,-4.1875 3.125,-4.1875 c 0.640625,0 0.75,0.53125 0.75,1.109375 l 0,2.328125 c 0,0.4375 -0.109375,0.4375 -0.78125,0.4375 l 0,0.3125 c 0.34375,-0.015625 0.859375,-0.03125 1.125,-0.03125 0.25,0 0.78125,0.015625 1.109375,0.03125 l 0,-0.3125 c -0.515625,0 -0.765625,0 -0.765625,-0.296875 l 0,-1.90625 c 0,-0.859375 0,-1.15625 -0.3125,-1.515625 -0.140625,-0.171875 -0.46875,-0.375 -1.046875,-0.375 C 2.46875,-4.40625 2,-3.984375 1.71875,-3.359375 l 0,-1.046875 -1.40625,0.109375 0,0.3125 c 0.703125,0 0.78125,0.0625 0.78125,0.5625 z m 0,0"
   style="stroke:none"
   inkscape:connector-curvature="0" />
</symbol>
<symbol
   id="textext-495789db-2"
   overflow="visible"
   style="overflow:visible">
<path
   id="path6049"
   d="m 1.71875,-3.984375 1.4375,0 0,-0.3125 -1.4375,0 0,-1.828125 -0.25,0 c 0,0.8125 -0.296875,1.875 -1.28125,1.921875 l 0,0.21875 0.84375,0 0,2.75 c 0,1.21875 0.9375,1.34375 1.296875,1.34375 0.703125,0 0.984375,-0.703125 0.984375,-1.34375 l 0,-0.5625 -0.25,0 0,0.546875 c 0,0.734375 -0.296875,1.109375 -0.671875,1.109375 -0.671875,0 -0.671875,-0.90625 -0.671875,-1.078125 z m 0,0"
   style="stroke:none"
   inkscape:connector-curvature="0" />
</symbol>
<symbol
   id="textext-495789db-3"
   overflow="visible"
   style="overflow:visible">
<path
   id="path6052"
   d="M 4.6875,-2.140625 C 4.6875,-3.40625 3.703125,-4.46875 2.5,-4.46875 c -1.25,0 -2.21875,1.09375 -2.21875,2.328125 0,1.296875 1.03125,2.25 2.203125,2.25 1.203125,0 2.203125,-0.984375 2.203125,-2.25 z m -2.1875,2 c -0.4375,0 -0.875,-0.203125 -1.140625,-0.671875 -0.25,-0.4375 -0.25,-1.046875 -0.25,-1.40625 0,-0.390625 0,-0.921875 0.234375,-1.359375 C 1.609375,-4.03125 2.078125,-4.25 2.484375,-4.25 c 0.4375,0 0.859375,0.21875 1.125,0.65625 0.265625,0.421875 0.265625,1 0.265625,1.375 0,0.359375 0,0.90625 -0.21875,1.34375 C 3.421875,-0.421875 2.984375,-0.140625 2.5,-0.140625 z m 0,0"
   style="stroke:none"
   inkscape:connector-curvature="0" />
</symbol>
<symbol
   id="textext-495789db-4"
   overflow="visible"
   style="overflow:visible">
<path
   id="path6055"
   d="m 1.671875,-3.3125 0,-1.09375 -1.390625,0.109375 0,0.3125 c 0.703125,0 0.78125,0.0625 0.78125,0.5625 l 0,2.671875 c 0,0.4375 -0.109375,0.4375 -0.78125,0.4375 l 0,0.3125 c 0.390625,-0.015625 0.859375,-0.03125 1.140625,-0.03125 0.390625,0 0.859375,0 1.265625,0.03125 l 0,-0.3125 -0.21875,0 c -0.734375,0 -0.75,-0.109375 -0.75,-0.46875 l 0,-1.53125 c 0,-0.984375 0.421875,-1.875 1.171875,-1.875 0.0625,0 0.09375,0 0.109375,0.015625 -0.03125,0 -0.234375,0.125 -0.234375,0.390625 0,0.265625 0.21875,0.421875 0.4375,0.421875 0.171875,0 0.421875,-0.125 0.421875,-0.4375 0,-0.3125 -0.3125,-0.609375 -0.734375,-0.609375 -0.734375,0 -1.09375,0.671875 -1.21875,1.09375 z m 0,0"
   style="stroke:none"
   inkscape:connector-curvature="0" />
</symbol>
</g>
</defs>
<g
   id="textext-495789db-5">
<g
   id="g6058"
   style="fill:#000000;fill-opacity:1">
  <use
   id="use6060"
   y="134.765"
   x="223.43201"
   xlink:href="#textext-495789db-0"
   width="799.99994"
   height="1313.15" />
  <use
   id="use6062"
   y="134.765"
   x="230.21254"
   xlink:href="#textext-495789db-1"
   width="799.99994"
   height="1313.15" />
</g>
<g
   id="g6064"
   style="fill:#000000;fill-opacity:1">
  <use
   id="use6066"
   y="134.765"
   x="235.46881"
   xlink:href="#textext-495789db-2"
   width="799.99994"
   height="1313.15" />
  <use
   id="use6068"
   y="134.765"
   x="239.34326"
   xlink:href="#textext-495789db-3"
   width="799.99994"
   height="1313.15" />
  <use
   id="use6070"
   y="134.765"
   x="244.32457"
   xlink:href="#textext-495789db-4"
   width="799.99994"
   height="1313.15" />
  <use
   id="use6072"
   y="134.765"
   x="248.22691"
   xlink:href="#textext-495789db-1"
   width="799.99994"
   height="1313.15" />
  <use
   id="use6074"
   y="134.765"
   x="253.76215"
   xlink:href="#textext-495789db-3"
   width="799.99994"
   height="1313.15" />
</g>
</g>
</g><g
   ns0:text="sensa"
   ns0:preamble=""
   transform="matrix(3.4946643,0,0,3.4946643,-342.83429,-27.37544)"
   id="g6404"><defs
   id="defs6406">
<g
   id="g6408">
<symbol
   style="overflow:visible"
   overflow="visible"
   id="textext-9b48f02a-0">
<path
   inkscape:connector-curvature="0"
   style="stroke:none"
   d="m 2.078125,-1.9375 c 0.21875,0.046875 1.03125,0.203125 1.03125,0.921875 0,0.5 -0.34375,0.90625 -1.125,0.90625 -0.84375,0 -1.203125,-0.5625 -1.390625,-1.421875 C 0.5625,-1.65625 0.5625,-1.6875 0.453125,-1.6875 c -0.125,0 -0.125,0.0625 -0.125,0.234375 l 0,1.328125 c 0,0.171875 0,0.234375 0.109375,0.234375 0.046875,0 0.0625,-0.015625 0.25,-0.203125 0.015625,-0.015625 0.015625,-0.03125 0.203125,-0.21875 0.4375,0.40625 0.890625,0.421875 1.09375,0.421875 1.140625,0 1.609375,-0.671875 1.609375,-1.390625 0,-0.515625 -0.296875,-0.828125 -0.421875,-0.9375 C 2.84375,-2.546875 2.453125,-2.625 2.03125,-2.703125 1.46875,-2.8125 0.8125,-2.9375 0.8125,-3.515625 c 0,-0.359375 0.25,-0.765625 1.109375,-0.765625 1.09375,0 1.15625,0.90625 1.171875,1.203125 0,0.09375 0.09375,0.09375 0.109375,0.09375 0.140625,0 0.140625,-0.046875 0.140625,-0.234375 l 0,-1.015625 c 0,-0.15625 0,-0.234375 -0.109375,-0.234375 -0.046875,0 -0.078125,0 -0.203125,0.125 -0.03125,0.03125 -0.125,0.125 -0.171875,0.15625 -0.375,-0.28125 -0.78125,-0.28125 -0.9375,-0.28125 -1.21875,0 -1.59375,0.671875 -1.59375,1.234375 0,0.34375 0.15625,0.625 0.421875,0.84375 0.328125,0.25 0.609375,0.3125 1.328125,0.453125 z m 0,0"
   id="path6411" />
</symbol>
<symbol
   style="overflow:visible"
   overflow="visible"
   id="textext-9b48f02a-1">
<path
   inkscape:connector-curvature="0"
   style="stroke:none"
   d="M 1.109375,-2.515625 C 1.171875,-4 2.015625,-4.25 2.359375,-4.25 c 1.015625,0 1.125,1.34375 1.125,1.734375 z m 0,0.21875 2.78125,0 c 0.21875,0 0.25,0 0.25,-0.21875 0,-0.984375 -0.546875,-1.953125 -1.78125,-1.953125 -1.15625,0 -2.078125,1.03125 -2.078125,2.28125 0,1.328125 1.046875,2.296875 2.1875,2.296875 C 3.6875,0.109375 4.140625,-1 4.140625,-1.1875 4.140625,-1.28125 4.0625,-1.3125 4,-1.3125 c -0.078125,0 -0.109375,0.0625 -0.125,0.140625 -0.34375,1.03125 -1.25,1.03125 -1.34375,1.03125 -0.5,0 -0.890625,-0.296875 -1.125,-0.671875 -0.296875,-0.46875 -0.296875,-1.125 -0.296875,-1.484375 z m 0,0"
   id="path6414" />
</symbol>
<symbol
   style="overflow:visible"
   overflow="visible"
   id="textext-9b48f02a-2">
<path
   inkscape:connector-curvature="0"
   style="stroke:none"
   d="m 1.09375,-3.421875 0,2.671875 c 0,0.4375 -0.109375,0.4375 -0.78125,0.4375 l 0,0.3125 c 0.359375,-0.015625 0.859375,-0.03125 1.140625,-0.03125 0.25,0 0.765625,0.015625 1.109375,0.03125 l 0,-0.3125 c -0.671875,0 -0.78125,0 -0.78125,-0.4375 l 0,-1.84375 C 1.78125,-3.625 2.5,-4.1875 3.125,-4.1875 c 0.640625,0 0.75,0.53125 0.75,1.109375 l 0,2.328125 c 0,0.4375 -0.109375,0.4375 -0.78125,0.4375 l 0,0.3125 c 0.34375,-0.015625 0.859375,-0.03125 1.125,-0.03125 0.25,0 0.78125,0.015625 1.109375,0.03125 l 0,-0.3125 c -0.515625,0 -0.765625,0 -0.765625,-0.296875 l 0,-1.90625 c 0,-0.859375 0,-1.15625 -0.3125,-1.515625 -0.140625,-0.171875 -0.46875,-0.375 -1.046875,-0.375 C 2.46875,-4.40625 2,-3.984375 1.71875,-3.359375 l 0,-1.046875 -1.40625,0.109375 0,0.3125 c 0.703125,0 0.78125,0.0625 0.78125,0.5625 z m 0,0"
   id="path6417" />
</symbol>
<symbol
   style="overflow:visible"
   overflow="visible"
   id="textext-9b48f02a-3">
<path
   inkscape:connector-curvature="0"
   style="stroke:none"
   d="m 3.3125,-0.75 c 0.046875,0.390625 0.3125,0.8125 0.78125,0.8125 0.21875,0 0.828125,-0.140625 0.828125,-0.953125 l 0,-0.5625 -0.25,0 0,0.5625 c 0,0.578125 -0.25,0.640625 -0.359375,0.640625 -0.328125,0 -0.375,-0.453125 -0.375,-0.5 l 0,-1.984375 c 0,-0.421875 0,-0.8125 -0.359375,-1.1875 C 3.1875,-4.3125 2.6875,-4.46875 2.21875,-4.46875 c -0.828125,0 -1.515625,0.46875 -1.515625,1.125 0,0.296875 0.203125,0.46875 0.46875,0.46875 0.28125,0 0.453125,-0.203125 0.453125,-0.453125 0,-0.125 -0.046875,-0.453125 -0.515625,-0.453125 C 1.390625,-4.140625 1.875,-4.25 2.1875,-4.25 c 0.5,0 1.0625,0.390625 1.0625,1.28125 l 0,0.359375 c -0.515625,0.03125 -1.203125,0.0625 -1.828125,0.359375 -0.75,0.34375 -1,0.859375 -1,1.296875 0,0.8125 0.96875,1.0625 1.59375,1.0625 0.65625,0 1.109375,-0.40625 1.296875,-0.859375 z M 3.25,-2.390625 l 0,1 c 0,0.9375 -0.71875,1.28125 -1.171875,1.28125 -0.484375,0 -0.890625,-0.34375 -0.890625,-0.84375 0,-0.546875 0.421875,-1.375 2.0625,-1.4375 z m 0,0"
   id="path6420" />
</symbol>
</g>
</defs>
<g
   id="textext-9b48f02a-4">
<g
   style="fill:#000000;fill-opacity:1"
   id="g6423">
  <use
   height="1313.15"
   width="799.99994"
   xlink:href="#textext-9b48f02a-0"
   x="223.43201"
   y="134.765"
   id="use6425" />
  <use
   height="1313.15"
   width="799.99994"
   xlink:href="#textext-9b48f02a-1"
   x="227.36125"
   y="134.765"
   id="use6427" />
  <use
   height="1313.15"
   width="799.99994"
   xlink:href="#textext-9b48f02a-2"
   x="231.78864"
   y="134.765"
   id="use6429" />
  <use
   height="1313.15"
   width="799.99994"
   xlink:href="#textext-9b48f02a-0"
   x="237.32385"
   y="134.765"
   id="use6431" />
  <use
   height="1313.15"
   width="799.99994"
   xlink:href="#textext-9b48f02a-3"
   x="241.2531"
   y="134.765"
   id="use6433" />
</g>
</g>
</g><g
   id="g6763"
   transform="matrix(3.380817,0,0,3.380817,-317.69106,68.487655)"
   ns0:preamble=""
   ns0:text="actua"><defs
   id="defs6765">
<g
   id="g6767">
<symbol
   id="textext-66942160-0"
   overflow="visible"
   style="overflow:visible">
<path
   id="path6770"
   d="m 3.3125,-0.75 c 0.046875,0.390625 0.3125,0.8125 0.78125,0.8125 0.21875,0 0.828125,-0.140625 0.828125,-0.953125 l 0,-0.5625 -0.25,0 0,0.5625 c 0,0.578125 -0.25,0.640625 -0.359375,0.640625 -0.328125,0 -0.375,-0.453125 -0.375,-0.5 l 0,-1.984375 c 0,-0.421875 0,-0.8125 -0.359375,-1.1875 C 3.1875,-4.3125 2.6875,-4.46875 2.21875,-4.46875 c -0.828125,0 -1.515625,0.46875 -1.515625,1.125 0,0.296875 0.203125,0.46875 0.46875,0.46875 0.28125,0 0.453125,-0.203125 0.453125,-0.453125 0,-0.125 -0.046875,-0.453125 -0.515625,-0.453125 C 1.390625,-4.140625 1.875,-4.25 2.1875,-4.25 c 0.5,0 1.0625,0.390625 1.0625,1.28125 l 0,0.359375 c -0.515625,0.03125 -1.203125,0.0625 -1.828125,0.359375 -0.75,0.34375 -1,0.859375 -1,1.296875 0,0.8125 0.96875,1.0625 1.59375,1.0625 0.65625,0 1.109375,-0.40625 1.296875,-0.859375 z M 3.25,-2.390625 l 0,1 c 0,0.9375 -0.71875,1.28125 -1.171875,1.28125 -0.484375,0 -0.890625,-0.34375 -0.890625,-0.84375 0,-0.546875 0.421875,-1.375 2.0625,-1.4375 z m 0,0"
   style="stroke:none"
   inkscape:connector-curvature="0" />
</symbol>
<symbol
   id="textext-66942160-1"
   overflow="visible"
   style="overflow:visible">
<path
   id="path6773"
   d="m 1.171875,-2.171875 c 0,-1.625 0.8125,-2.046875 1.34375,-2.046875 0.09375,0 0.71875,0.015625 1.0625,0.375 -0.40625,0.03125 -0.46875,0.328125 -0.46875,0.453125 0,0.265625 0.1875,0.453125 0.453125,0.453125 0.265625,0 0.46875,-0.15625 0.46875,-0.46875 0,-0.671875 -0.765625,-1.0625 -1.53125,-1.0625 -1.25,0 -2.15625,1.078125 -2.15625,2.3125 0,1.28125 0.984375,2.265625 2.140625,2.265625 1.328125,0 1.65625,-1.203125 1.65625,-1.296875 0,-0.09375 -0.109375,-0.09375 -0.140625,-0.09375 -0.078125,0 -0.109375,0.03125 -0.125,0.09375 -0.28125,0.921875 -0.9375,1.046875 -1.296875,1.046875 -0.53125,0 -1.40625,-0.421875 -1.40625,-2.03125 z m 0,0"
   style="stroke:none"
   inkscape:connector-curvature="0" />
</symbol>
<symbol
   id="textext-66942160-2"
   overflow="visible"
   style="overflow:visible">
<path
   id="path6776"
   d="m 1.71875,-3.984375 1.4375,0 0,-0.3125 -1.4375,0 0,-1.828125 -0.25,0 c 0,0.8125 -0.296875,1.875 -1.28125,1.921875 l 0,0.21875 0.84375,0 0,2.75 c 0,1.21875 0.9375,1.34375 1.296875,1.34375 0.703125,0 0.984375,-0.703125 0.984375,-1.34375 l 0,-0.5625 -0.25,0 0,0.546875 c 0,0.734375 -0.296875,1.109375 -0.671875,1.109375 -0.671875,0 -0.671875,-0.90625 -0.671875,-1.078125 z m 0,0"
   style="stroke:none"
   inkscape:connector-curvature="0" />
</symbol>
<symbol
   id="textext-66942160-3"
   overflow="visible"
   style="overflow:visible">
<path
   id="path6779"
   d="m 3.890625,-0.78125 0,0.890625 L 5.328125,0 l 0,-0.3125 C 4.640625,-0.3125 4.5625,-0.375 4.5625,-0.875 l 0,-3.53125 -1.46875,0.109375 0,0.3125 c 0.6875,0 0.78125,0.0625 0.78125,0.5625 l 0,1.765625 c 0,0.875 -0.484375,1.546875 -1.21875,1.546875 -0.828125,0 -0.875,-0.46875 -0.875,-0.984375 l 0,-3.3125 -1.46875,0.109375 0,0.3125 c 0.78125,0 0.78125,0.03125 0.78125,0.90625 l 0,1.5 c 0,0.78125 0,1.6875 1.515625,1.6875 0.5625,0 1,-0.28125 1.28125,-0.890625 z m 0,0"
   style="stroke:none"
   inkscape:connector-curvature="0" />
</symbol>
</g>
</defs>
<g
   id="textext-66942160-4">
<g
   id="g6782"
   style="fill:#000000;fill-opacity:1">
  <use
   id="use6784"
   y="134.765"
   x="223.43201"
   xlink:href="#textext-66942160-0"
   width="799.99994"
   height="1313.15" />
  <use
   id="use6786"
   y="134.765"
   x="228.4133"
   xlink:href="#textext-66942160-1"
   width="799.99994"
   height="1313.15" />
  <use
   id="use6788"
   y="134.765"
   x="232.84068"
   xlink:href="#textext-66942160-2"
   width="799.99994"
   height="1313.15" />
  <use
   id="use6790"
   y="134.765"
   x="236.71513"
   xlink:href="#textext-66942160-3"
   width="799.99994"
   height="1313.15" />
  <use
   id="use6792"
   y="134.765"
   x="242.25035"
   xlink:href="#textext-66942160-0"
   width="799.99994"
   height="1313.15" />
</g>
</g>
</g></svg>